<svg id="Capa_1" enable-background="new 0 0 512 512" height="512" viewBox="0 0 512 512" width="512" xmlns="http://www.w3.org/2000/svg"><path d="m309.13 444.63c-1.208 0-2.418-.046-3.63-.138-28.341-2.153-45.986-29.056-46.724-30.2-2.311-3.587-1.277-8.369 2.31-10.68 3.586-2.31 8.369-1.278 10.68 2.31.13.2 14.339 21.653 34.987 23.169 13.106.955 26.628-6.326 40.187-21.659 2.827-3.197 7.709-3.497 10.906-.67s3.496 7.71.67 10.906c-15.835 17.906-32.431 26.962-49.386 26.962z" fill="#da4a54"/><path d="m493.843 491.874c-4.267 0-7.726-3.459-7.726-7.726v-138.745c0-4.267 3.459-7.726 7.726-7.726s7.726 3.459 7.726 7.726v138.744c0 4.267-3.459 7.727-7.726 7.727z" fill="#934d36"/><path d="m507.915 512h-119.212v-40.187c-19.872 0-35.974-16.102-35.974-35.974v-56.104l-30.432-61.121v-30.566c0-24.518 19.872-44.39 44.39-44.39h35.655c24.518 0 44.39 19.872 44.39 44.39v75.852c.001.001 61.183 37.108 61.183 148.1z" fill="#aa593d"/><path d="m426.047 512h-37.344v-40.187c-19.872 0-35.974-16.102-35.974-35.974v-56.104l-30.432-61.121v-30.566c0-24.518 19.872-44.39 44.39-44.39h14.814c-21.933 0-31.863 53.106-26.898 105.511l30.318 16.792s-23.292 80.849 16.442 102.771c21.923 12.095 25.704 29.814 24.684 43.268z" fill="#934d36"/><path d="m386.909 318.615h-64.609c-16.877 0-30.558 13.681-30.558 30.558 0 16.877 13.681 30.558 30.558 30.558h64.609c16.877 0 30.558-13.681 30.558-30.558-.001-16.877-13.682-30.558-30.558-30.558z" fill="#eadfda"/><path d="m322.617 370.786c5.522 5.532 13.166 8.952 21.603 8.952h-21.922c-8.437 0-16.081-3.42-21.603-8.952-5.532-5.532-8.952-13.166-8.952-21.613 0-16.874 13.681-30.555 30.555-30.555h21.922c-16.874 0-30.555 13.681-30.555 30.555-.001 8.447 3.42 16.081 8.952 21.613z" fill="#c6beb9"/><path d="m354.604 339.286c-9.927 0-17.975-8.048-17.975-17.975v-2.696h35.95v2.696c0 9.928-8.047 17.975-17.975 17.975z" fill="#454045"/><path d="m452.032 333.071c-12.701 0-22.996-10.296-22.996-22.996v-57.492h5.714c22.245 0 40.278 18.033 40.278 40.278v17.214c0 12.7-10.296 22.996-22.996 22.996z" fill="#eadfda"/><path d="m458.19 332.223c-1.957.556-4.028.845-6.161.845-12.702 0-22.994-10.292-22.994-22.994v-57.494h5.707c2.256 0 4.471.185 6.624.546v56.948c.001 10.56 7.119 19.46 16.824 22.149z" fill="#c6beb9"/><g fill="#454045"><ellipse cx="384.18" cy="292.151" rx="9.708" ry="14.433"/><ellipse cx="352.055" cy="292.151" rx="9.708" ry="14.433"/><path d="m352.728 420.275c-4.267 0-7.726-3.459-7.726-7.726s3.459-7.726 7.726-7.726c68.039 0 86.679-43.421 86.859-43.859 1.623-3.947 6.14-5.831 10.084-4.208 3.947 1.623 5.83 6.137 4.208 10.084-.897 2.181-22.87 53.435-101.151 53.435z"/><ellipse cx="28.658" cy="230.508" rx="34.346" ry="16.605" transform="matrix(.707 -.707 .707 .707 -154.6 87.779)"/></g><ellipse cx="289.252" cy="230.508" fill="#665e66" rx="16.605" ry="34.346" transform="matrix(.707 -.707 .707 .707 -78.274 272.046)"/><path d="m307.729 125.435c0 69.269-66.611 125.425-148.779 125.425-5.553 0-11.023-.258-16.411-.762-74.441-6.882-132.358-60.07-132.358-124.662.001-69.281 66.612-125.436 148.769-125.436 82.167 0 148.779 56.155 148.779 125.435z" fill="#665e66"/><path d="m98.715 112.094 43.824 138.003c-74.441-6.882-132.358-60.07-132.358-124.662.001-69.28 66.612-125.435 148.769-125.435-50.705 10.673-60.235 77.717-60.235 112.094z" fill="#454045"/><path d="m199.287 447.696-3.42 13.341-6.882 26.857-30.03 12.104-13.413-5.408-16.617-6.696-6.881-26.857-3.42-13.341 20.263-10.868 21.902-11.744z" fill="#f1d0a5"/><path d="m199.287 447.696-3.42 13.341h-73.823l-3.42-13.341 20.263-10.868 21.902-11.744z" fill="#f1b986"/><path d="m145.541 494.59-16.617-6.696-10.302-40.198 20.264-10.868z" fill="#f1b986"/><path d="m158.953 429.085h13.934v62.121h-13.934z" fill="#f1b986"/><path d="m102.694 512h56.259v-24.108h-32.152c-13.314 0-24.107 10.794-24.107 24.108z" fill="#70c6da"/><path d="m142.172 487.888c-13.313 0-24.112 10.798-24.112 24.112h-15.366c0-13.313 10.788-24.112 24.101-24.112z" fill="#63afcb"/><path d="m215.213 512h-56.259v-24.108h32.152c13.314 0 24.107 10.794 24.107 24.108z" fill="#70c6da"/><path d="m267.069 417.213c-3.966 3.966-11.559 4.399-18.42 3.77-7.531-.701-14.175-2.678-14.175-2.678l-20.449-11.373-5.491-43.154-4.79-37.694 21.922 3.791 14.515 2.503 22.386 3.873 4.502 51.272s8.324 21.366 0 29.69z" fill="#f1d0a5"/><path d="m248.65 420.983c-7.531-.701-14.175-2.678-14.175-2.678l-20.449-11.373-5.491-43.154 4.801-33.584 12.331-.319 13.701-.361s.309 1.01.814 2.864c3.172 11.486 14.216 55.197 8.468 88.605z" fill="#f1b986"/><path d="m55.349 336.251-4.5 51.275s-8.326 21.359 0 29.684c8.326 8.326 32.594 1.094 32.594 1.094l29.861-88.11-43.85-8.222z" fill="#f1b986"/><path d="m232.237 447.696h-146.564c-5.192-32.399-3.472-58.854-.505-77.037l25.373-7.16 50.036-14.124 72.164 21.284c2.958 18.183 4.688 44.638-.504 77.037z" fill="#8078bc"/><path d="m105.36 447.696h-19.687c-5.192-32.399-3.472-58.854-.505-77.037l25.373-7.16c-4.14 26.373-6.85 56.011-5.181 84.197z" fill="#5e54ac"/><path d="m225.841 343.133-.062.01s4.028 9.869 6.902 27.516h-147.573c2.781-17.091 6.655-26.888 6.892-27.485.01-.021.01-.031.01-.031l-15.319-2.874-21.407-4.018c10.168-52.993 34.398-72.597 39.507-76.202h128.206c5.11 3.606 29.34 23.21 39.508 76.202l-20.325 3.812z" fill="#f6e266"/><path d="m242.18 340.063-16.339 3.07-7.026-21.16c.001 0 20.254 4.09 23.365 18.09z" fill="#eab14d"/><path d="m112.614 319.912-3.142 50.747h-24.364c2.781-17.091 6.655-26.888 6.892-27.485l.072-.031s4.101-16.37 20.542-23.231z" fill="#eab14d"/><path d="m119.558 260.049c-36.582 33.821-42.783 80.22-42.783 80.22h-.082l-21.407-4.018c10.168-52.993 34.398-72.597 39.507-76.202z" fill="#eab14d"/><ellipse cx="158.959" cy="263.766" fill="#f1b986" rx="39.725" ry="28.846"/><path d="m264.966 206.222c-1.566 30.586-26.043 54.94-56.639 56.382-25.919 1.226-51.839 1.483-77.768.773h-.01c-6.985-.185-13.98-.443-20.964-.773-30.586-1.442-55.063-25.796-56.639-56.382-1.113-21.799-.36-105.892-.36-105.892s17.987 9.818 46.131 11.765c28.721 1.978 68.033-4.234 109.57-37.457 0 0 26.826 39.198 57.196 49.562.142 26.588.214 67.712-.517 82.022z" fill="#f1d0a5"/><path d="m130.548 263.376c-6.985-.185-13.98-.443-20.964-.773-30.586-1.442-55.063-25.796-56.639-56.382-1.113-21.799-.36-105.892-.36-105.892s17.987 9.818 46.131 11.765c.844 99.474 11.713 150.52 31.832 151.282z" fill="#f1b986"/><path d="m109.491 141.477c-5.352 0-9.707 6.475-9.707 14.433s4.355 14.433 9.707 14.433c5.353 0 9.708-6.475 9.708-14.433.001-7.958-4.354-14.433-9.708-14.433z" fill="#454045"/><path d="m208.427 141.477c-5.352 0-9.707 6.475-9.707 14.433s4.355 14.433 9.707 14.433c5.353 0 9.708-6.475 9.708-14.433s-4.355-14.433-9.708-14.433z" fill="#454045"/><path d="m158.957 218.768c-12.209 0-23.482-7.129-28.718-18.161-1.83-3.855-.188-8.463 3.667-10.293 3.853-1.829 8.463-.189 10.293 3.667 2.691 5.67 8.485 9.334 14.759 9.334s12.066-3.664 14.758-9.334c1.83-3.855 6.441-5.497 10.293-3.667 3.855 1.83 5.497 6.438 3.667 10.293-5.238 11.033-16.509 18.161-28.719 18.161z" fill="#da4a54"/><ellipse cx="225.073" cy="190.766" fill="#eaac9d" rx="15.759" ry="9.935"/><ellipse cx="92.838" cy="190.766" fill="#eaac9d" rx="15.759" ry="9.935"/><path d="m404.156 512h-24.018c-4.267 0-7.726-3.459-7.726-7.726s3.459-7.726 7.726-7.726h24.018c4.267 0 7.726 3.459 7.726 7.726s-3.459 7.726-7.726 7.726z" fill="#934d36"/></svg>